<svg xmlns="http://www.w3.org/2000/svg" xmlns:xlink="http://www.w3.org/1999/xlink" width="500" zoomAndPan="magnify" viewBox="0 0 375 374.999991" height="500" preserveAspectRatio="xMidYMid meet" version="1.0"><defs><clipPath id="5408a51973"><path d="M 126 199.046875 L 250 199.046875 L 250 375 L 126 375 Z M 126 199.046875 " clip-rule="nonzero"/></clipPath></defs><path fill="#000000" d="M 122.113281 255.417969 L 258.070312 255.417969 L 258.070312 68.738281 L 122.113281 68.738281 L 122.113281 255.417969 " fill-opacity="1" fill-rule="nonzero"/><path fill="#d8a266" d="M 204.136719 244.230469 L 169.855469 244.230469 L 136.992188 203.371094 L 169.855469 193.125 L 169.855469 163.328125 L 204.136719 163.328125 L 204.136719 192.976562 L 239.667969 203.371094 L 204.136719 244.230469 " fill-opacity="1" fill-rule="nonzero"/><path fill="#d8a266" d="M 261.738281 375.039062 L 290.824219 375.039062 L 266.660156 215.082031 L 240.039062 203.371094 L 249.230469 275.902344 L 261.738281 375.039062 " fill-opacity="1" fill-rule="nonzero"/><path fill="#d8a266" d="M 115.292969 375.039062 L 127.800781 275.902344 L 136.992188 203.371094 L 110.363281 215.082031 L 86.203125 375.039062 L 115.292969 375.039062 " fill-opacity="1" fill-rule="nonzero"/><g clip-path="url(#5408a51973)"><path fill="#9d4361" d="M 136.789062 375.039062 L 240.238281 375.039062 L 248.734375 285.136719 L 249.664062 207.601562 L 239.667969 203.371094 L 226.488281 199.515625 L 186.996094 235.964844 L 150.050781 199.296875 L 137.363281 203.371094 L 126.476562 208 L 128.289062 285.136719 L 136.789062 375.039062 " fill-opacity="1" fill-rule="nonzero"/></g><path fill="#000000" d="M 240.855469 25.617188 C 240.855469 25.617188 254.53125 25.125 256.300781 46.1875 C 258.089844 67.242188 267.882812 138.261719 211.300781 168.609375 C 211.300781 168.609375 194.527344 51.917969 240.855469 25.617188 " fill-opacity="1" fill-rule="nonzero"/><path fill="#000000" d="M 240.855469 25.617188 C 240.855469 25.617188 232.804688 0.03125 189.394531 0.03125 C 145.992188 0.03125 84.527344 31.753906 126.769531 129.441406 C 140.867188 162.039062 172.539062 173.441406 172.539062 173.441406 L 240.855469 25.617188 " fill-opacity="1" fill-rule="nonzero"/><path fill="#d8a266" d="M 247.445312 115.246094 C 247.445312 115.246094 249.3125 115.246094 249.933594 115.246094 C 252.453125 115.246094 254.238281 110.871094 254.980469 108.6875 C 256.636719 103.828125 257.363281 99.953125 257.605469 97.828125 C 257.921875 95.140625 257.089844 90.507812 253.628906 90.507812 C 249.664062 90.507812 247.445312 94.546875 247.445312 94.546875 L 247.445312 115.246094 " fill-opacity="1" fill-rule="nonzero"/><path fill="#d8a266" d="M 126.253906 115.246094 C 126.253906 115.246094 124.382812 115.246094 123.765625 115.246094 C 121.242188 115.246094 119.46875 110.871094 118.722656 108.6875 C 117.058594 103.828125 116.335938 99.953125 116.089844 97.828125 C 115.777344 95.140625 116.617188 90.507812 120.070312 90.507812 C 124.039062 90.507812 126.253906 94.546875 126.253906 94.546875 L 126.253906 115.246094 " fill-opacity="1" fill-rule="nonzero"/><path fill="#d8a266" d="M 249.074219 58.761719 C 249.074219 58.761719 247.148438 36.480469 225.644531 21.71875 C 217.132812 15.871094 203.035156 11.351562 187.417969 11.542969 L 187.417969 11.535156 L 187.207031 11.539062 L 187 11.535156 L 187 11.542969 L 186.75 11.542969 L 186.75 11.535156 L 186.535156 11.539062 L 186.332031 11.535156 L 186.332031 11.542969 C 170.710938 11.351562 156.621094 15.871094 148.097656 21.71875 C 126.597656 36.480469 124.679688 58.761719 124.679688 58.761719 C 124.679688 58.761719 115.757812 95.777344 131.199219 129.515625 C 133.835938 135.273438 137.863281 147.933594 156.128906 163.359375 C 168.167969 173.523438 176.722656 176.933594 186.75 176.933594 L 186.871094 176.925781 L 187 176.933594 C 197.019531 176.933594 205.578125 173.523438 217.617188 163.359375 C 235.886719 147.933594 239.910156 135.273438 242.546875 129.515625 C 257.992188 95.777344 249.074219 58.761719 249.074219 58.761719 " fill-opacity="1" fill-rule="nonzero"/><path fill="#000000" d="M 177.566406 176.027344 C 171.191406 174.246094 164.734375 170.480469 156.742188 163.710938 C 138.480469 148.246094 134.449219 135.542969 131.8125 129.773438 C 129.644531 125.027344 127.976562 120.222656 126.679688 115.464844 L 124.382812 115.464844 C 121.855469 115.464844 120.078125 111.074219 119.335938 108.886719 C 117.679688 104.015625 116.949219 100.128906 116.703125 97.996094 C 116.394531 95.300781 117.226562 90.65625 120.679688 90.65625 C 120.808594 90.65625 120.910156 90.6875 121.027344 90.699219 L 121.027344 80.191406 L 121.042969 80.191406 C 120.800781 61.9375 123.878906 48.292969 128.824219 38.09375 L 128.847656 38.023438 C 128.847656 38.023438 112.585938 44.742188 112.585938 69.816406 L 112.585938 142.792969 C 112.585938 168.890625 136.992188 283.785156 116.640625 364.359375 C 116.640625 364.359375 167.617188 332.644531 177.566406 176.027344 " fill-opacity="1" fill-rule="nonzero"/><path fill="#000000" d="M 249.074219 58.761719 C 249.074219 58.761719 247.148438 36.480469 225.644531 21.71875 C 217.132812 15.871094 203.035156 11.351562 187.417969 11.542969 L 187.417969 11.535156 L 187.207031 11.539062 L 187 11.535156 L 187 11.542969 L 186.742188 11.542969 L 186.742188 11.535156 L 186.535156 11.539062 L 186.332031 11.535156 L 186.332031 11.542969 C 170.710938 11.351562 156.621094 15.871094 148.097656 21.71875 C 126.597656 36.480469 124.675781 58.761719 124.675781 58.761719 C 124.675781 58.761719 120.300781 76.914062 122.984375 99.378906 C 124.8125 105.335938 126.769531 108.542969 126.769531 108.542969 C 124.171875 66.894531 155.898438 51.0625 162.71875 48.144531 C 162.71875 48.144531 198.789062 43.625 210.527344 48.144531 C 217.355469 51.0625 249.078125 66.894531 246.488281 108.542969 C 246.488281 108.542969 249.0625 104.308594 251.066406 96.542969 C 253.082031 75.402344 249.074219 58.761719 249.074219 58.761719 " fill-opacity="1" fill-rule="nonzero"/><path fill="#000000" d="M 246.488281 108.542969 C 247.511719 106.65625 248.316406 104.660156 249.027344 102.640625 C 249.734375 100.617188 250.335938 98.5625 250.839844 96.480469 L 250.832031 96.519531 C 251.339844 90.222656 251.355469 83.894531 250.941406 77.601562 C 250.726562 74.460938 250.441406 71.320312 250.027344 68.199219 C 249.605469 65.082031 249.097656 61.953125 248.394531 58.929688 L 248.382812 58.894531 L 248.375 58.824219 C 247.933594 55.425781 246.957031 51.996094 245.742188 48.738281 C 244.5 45.464844 242.953125 42.3125 241.121094 39.335938 C 237.449219 33.394531 232.6875 28.140625 227.078125 23.972656 C 221.539062 19.746094 214.980469 17.019531 208.230469 15.199219 C 201.464844 13.394531 194.4375 12.5625 187.433594 12.664062 L 186.300781 12.675781 L 186.300781 11.542969 L 186.296875 11.535156 L 187.417969 12.65625 L 187 12.65625 L 188.121094 11.535156 L 188.121094 11.542969 L 188.125 12.660156 L 187 12.664062 L 185.625 12.664062 L 185.621094 11.542969 L 185.621094 11.535156 L 186.742188 12.65625 L 186.332031 12.65625 L 187.453125 11.535156 L 187.453125 11.542969 L 187.449219 12.679688 L 186.316406 12.664062 C 179.316406 12.566406 172.289062 13.394531 165.519531 15.199219 C 158.773438 17.019531 152.207031 19.746094 146.667969 23.972656 C 141.058594 28.140625 136.296875 33.394531 132.628906 39.335938 C 130.796875 42.3125 129.25 45.464844 128.011719 48.738281 C 126.792969 51.996094 125.816406 55.425781 125.378906 58.824219 L 125.371094 58.894531 L 125.359375 58.929688 C 124.601562 62.183594 124.0625 65.550781 123.632812 68.902344 C 123.210938 72.261719 122.917969 75.640625 122.722656 79.023438 C 122.347656 85.792969 122.472656 92.597656 123.175781 99.355469 L 123.167969 99.320312 C 123.632812 100.910156 124.136719 102.480469 124.730469 104.023438 C 125.324219 105.5625 125.972656 107.089844 126.769531 108.542969 C 125.917969 107.125 125.207031 105.617188 124.546875 104.097656 C 123.894531 102.570312 123.308594 101.015625 122.800781 99.4375 L 122.796875 99.421875 L 122.792969 99.402344 C 121.886719 92.648438 121.558594 85.808594 121.730469 78.980469 C 121.8125 75.566406 122.042969 72.15625 122.414062 68.757812 C 122.789062 65.359375 123.265625 61.984375 123.988281 58.597656 L 123.972656 58.703125 C 124.375 55.046875 125.308594 51.589844 126.507812 48.183594 C 127.714844 44.792969 129.253906 41.515625 131.09375 38.410156 C 134.738281 32.179688 139.714844 26.746094 145.472656 22.386719 C 151.234375 17.9375 158.042969 15.070312 164.964844 13.160156 C 171.925781 11.261719 179.136719 10.363281 186.34375 10.421875 L 185.207031 11.542969 L 185.207031 11.535156 L 185.203125 10.414062 L 187.867188 10.414062 L 187.863281 11.535156 L 187.863281 11.542969 L 186.742188 10.421875 L 187 10.421875 L 185.875 11.542969 L 185.875 11.535156 L 185.878906 10.410156 L 187 10.414062 L 187.417969 10.414062 L 188.542969 10.417969 L 188.539062 11.535156 L 188.539062 11.542969 L 187.40625 10.425781 C 194.613281 10.367188 201.828125 11.261719 208.78125 13.160156 C 215.703125 15.070312 222.511719 17.941406 228.273438 22.390625 C 234.03125 26.75 239.007812 32.183594 242.652344 38.414062 C 244.488281 41.519531 246.027344 44.796875 247.238281 48.1875 C 248.433594 51.589844 249.371094 55.046875 249.773438 58.703125 L 249.757812 58.597656 C 250.4375 61.75 250.886719 64.882812 251.253906 68.046875 C 251.609375 71.207031 251.867188 74.375 251.972656 77.550781 C 252.203125 83.902344 251.996094 90.261719 251.300781 96.5625 L 251.296875 96.585938 L 251.292969 96.601562 C 250.722656 98.675781 250.0625 100.730469 249.265625 102.726562 C 248.46875 104.726562 247.589844 106.695312 246.488281 108.542969 " fill-opacity="1" fill-rule="nonzero"/><path fill="#000000" d="M 126.769531 108.542969 C 126.769531 108.542969 137.207031 59.882812 165.363281 61.449219 C 197.300781 63.230469 217.953125 63.507812 226.566406 41.484375 C 226.566406 41.484375 218.839844 22.828125 199.601562 17.308594 C 187.613281 13.867188 173.199219 12.429688 159.910156 18.785156 C 133.050781 31.636719 118.078125 78.011719 126.769531 108.542969 " fill-opacity="1" fill-rule="nonzero"/><path fill="#342216" d="M 222.195312 46.9375 C 222.195312 46.9375 207.554688 54.429688 191.65625 50.203125 C 175.753906 45.980469 142.164062 30.902344 128.710938 85.351562 C 128.710938 85.351562 128.128906 36.304688 162.269531 36.640625 C 190.484375 36.917969 204.816406 46.695312 215.484375 34.726562 L 222.195312 46.9375 " fill-opacity="1" fill-rule="nonzero"/><path fill="#342216" d="M 131.179688 49.425781 C 131.179688 49.425781 155.890625 18.378906 192.945312 34.136719 C 203.886719 38.789062 211.421875 36.546875 212.917969 32.140625 C 212.917969 32.140625 210.402344 20.703125 192.527344 17.40625 C 151.96875 9.933594 131.179688 49.425781 131.179688 49.425781 " fill-opacity="1" fill-rule="nonzero"/></svg>